<svg xmlns="http://www.w3.org/2000/svg" xmlns:xlink="http://www.w3.org/1999/xlink" id="processonSvg1000" width="790.553" height="895" viewBox="135.447 86 790.553 895"><defs id="ProcessOnDefs1001"><marker id="ProcessOnMarker1126" markerHeight="10.551" markerUnits="userSpaceOnUse" markerWidth="16.236" orient="auto" refX="-1" refY="3.899" viewBox="-1 -1.376 16.236 10.551"><path id="ProcessOnPath1127" fill="#323232" stroke="#323232" stroke-width="2" d="M12.0 3.8990363547948754L0.0 7.798072709589751V0.0Z" transform="matrix(1.0,0.0,0.0,1.0,0.0,0.0)"/></marker><marker id="ProcessOnMarker1130" markerHeight="10.551" markerUnits="userSpaceOnUse" markerWidth="16.236" orient="auto" refX="-1" refY="3.899" viewBox="-1 -1.376 16.236 10.551"><path id="ProcessOnPath1131" fill="#323232" stroke="#323232" stroke-width="2" d="M12.0 3.8990363547948754L0.0 7.798072709589751V0.0Z" transform="matrix(1.0,0.0,0.0,1.0,0.0,0.0)"/></marker><marker id="ProcessOnMarker1138" markerHeight="10.551" markerUnits="userSpaceOnUse" markerWidth="16.236" orient="auto" refX="-1" refY="3.899" viewBox="-1 -1.376 16.236 10.551"><path id="ProcessOnPath1139" fill="#323232" stroke="#323232" stroke-width="2" d="M12.0 3.8990363547948754L0.0 7.798072709589751V0.0Z" transform="matrix(1.0,0.0,0.0,1.0,0.0,0.0)"/></marker><marker id="ProcessOnMarker1142" markerHeight="10.551" markerUnits="userSpaceOnUse" markerWidth="16.236" orient="auto" refX="-1" refY="3.899" viewBox="-1 -1.376 16.236 10.551"><path id="ProcessOnPath1143" fill="#323232" stroke="#323232" stroke-width="2" d="M12.0 3.8990363547948754L0.0 7.798072709589751V0.0Z" transform="matrix(1.0,0.0,0.0,1.0,0.0,0.0)"/></marker><marker id="ProcessOnMarker1146" markerHeight="10.551" markerUnits="userSpaceOnUse" markerWidth="16.236" orient="auto" refX="-1" refY="3.899" viewBox="-1 -1.376 16.236 10.551"><path id="ProcessOnPath1147" fill="#323232" stroke="#323232" stroke-width="2" d="M12.0 3.8990363547948754L0.0 7.798072709589751V0.0Z" transform="matrix(1.0,0.0,0.0,1.0,0.0,0.0)"/></marker><marker id="ProcessOnMarker1150" markerHeight="10.551" markerUnits="userSpaceOnUse" markerWidth="16.236" orient="auto" refX="-1" refY="3.899" viewBox="-1 -1.376 16.236 10.551"><path id="ProcessOnPath1151" fill="#323232" stroke="#323232" stroke-width="2" d="M12.0 3.8990363547948754L0.0 7.798072709589751V0.0Z" transform="matrix(1.0,0.0,0.0,1.0,0.0,0.0)"/></marker><marker id="ProcessOnMarker1154" markerHeight="10.551" markerUnits="userSpaceOnUse" markerWidth="16.236" orient="auto" refX="-1" refY="3.899" viewBox="-1 -1.376 16.236 10.551"><path id="ProcessOnPath1155" fill="#323232" stroke="#323232" stroke-width="2" d="M12.0 3.8990363547948754L0.0 7.798072709589751V0.0Z" transform="matrix(1.0,0.0,0.0,1.0,0.0,0.0)"/></marker></defs><g id="ProcessOnG1002"><path id="ProcessOnPath1003" fill="#fff" d="M135.4469182764849 85.99999999999997H926.0V981.0H135.4469182764849V86.0Z"/><g id="ProcessOnG1004"><g id="ProcessOnG1005" opacity="1" transform="matrix(1.0,0.0,0.0,1.0,263.21220622471213,832.5152089227224)"><path id="ProcessOnPath1006" fill="#99f" stroke="#323232" stroke-dasharray="none" stroke-width="2" d="M0.0 4.0Q0.0 0.0 4.0 0.0L618.0000000000001 0.0Q622.0000000000001 0.0 622.0000000000001 4.0L622.0000000000001 124.48479107727758Q622.0000000000001 128.48479107727758 618.0000000000001 128.48479107727758L4.0 128.48479107727758Q0.0 128.48479107727758 0.0 124.48479107727758Z" opacity="1"/></g><g id="ProcessOnG1007" opacity="1" transform="matrix(1.0,0.0,0.0,1.0,213.42449544842435,797.7016574585634)"><path id="ProcessOnPath1008" fill="none" stroke="#888" stroke-dasharray="5 2" stroke-width="1" d="M0.0 10.384878600859436L690.5530817235151 10.384878600859436" opacity="1"/><path id="ProcessOnPath1009" fill="none" stroke="#888" stroke-dasharray="0 0" stroke-width="0" d="M0.0 0.0L690.5530817235151 0.0L690.5530817235151 20.76975720171887L0.0 20.76975720171887Z" opacity="1"/></g><g id="ProcessOnG1010" opacity="1" transform="matrix(1.0,0.0,0.0,1.0,212.44691827648495,185.2302427982811)"><path id="ProcessOnPath1011" fill="none" stroke="#888" stroke-dasharray="5 2" stroke-width="1" d="M0.0 10.384878600859436L690.5530817235151 10.384878600859436" opacity="1"/><path id="ProcessOnPath1012" fill="none" stroke="#888" stroke-dasharray="0 0" stroke-width="0" d="M0.0 0.0L690.5530817235151 0.0L690.5530817235151 20.76975720171887L0.0 20.76975720171887Z" opacity="1"/></g><g id="ProcessOnG1013" opacity="1" transform="matrix(1.0,0.0,0.0,1.0,263.2122062247121,105.99999999999997)"><path id="ProcessOnPath1014" fill="#9fc" stroke="#323232" stroke-dasharray="none" stroke-width="2" d="M0.0 4.0Q0.0 0.0 4.0 0.0L272.4141342923342 0.0Q276.4141342923342 0.0 276.4141342923342 4.0L276.4141342923342 45.0Q276.4141342923342 49.0 272.4141342923342 49.0L4.0 49.0Q0.0 49.0 0.0 45.0Z" opacity="1"/><g id="ProcessOnG1015" transform="matrix(1.0,0.0,0.0,1.0,10.0,16.375)"><text id="ProcessOnText1016" x="127.207" y="13.325" fill="#000" font-family="微软雅黑" font-size="13" font-style="normal" font-weight="normal" text-anchor="middle" text-decoration="none">APP</text></g></g><g id="ProcessOnG1017" opacity="1" transform="matrix(1.0,0.0,0.0,1.0,155.4469182764849,481.7576044613613)"><path id="ProcessOnPath1018" fill="none" stroke="#323232" stroke-dasharray="none" stroke-width="0" d="M0.0 0.0L92.92024962397035 0.0L92.92024962397035 42.18644853584079L0.0 42.18644853584079Z" opacity="1"/><g id="ProcessOnG1019" transform="matrix(1.0,0.0,0.0,1.0,0.0,12.968224267920395)"><text id="ProcessOnText1020" x="45.46" y="13.325" fill="#000" font-family="微软雅黑" font-size="13" font-style="normal" font-weight="normal" text-anchor="middle" text-decoration="none">业务层</text></g></g><g id="ProcessOnG1021" opacity="1" transform="matrix(1.0,0.0,0.0,1.0,157.44691827648495,129.40677573207958)"><path id="ProcessOnPath1022" fill="none" stroke="#323232" stroke-dasharray="none" stroke-width="0" d="M0.0 0.0L92.92024962397035 0.0L92.92024962397035 42.18644853584079L0.0 42.18644853584079Z" opacity="1"/><g id="ProcessOnG1023" transform="matrix(1.0,0.0,0.0,1.0,0.0,12.968224267920395)"><text id="ProcessOnText1024" x="45.46" y="13.325" fill="#000" font-family="微软雅黑" font-size="13" font-style="normal" font-weight="normal" text-anchor="middle" text-decoration="none">用户层</text></g></g><g id="ProcessOnG1025" opacity="1" transform="matrix(1.0,0.0,0.0,1.0,215.4469182764849,273.2302427982811)"><path id="ProcessOnPath1026" fill="none" stroke="#888" stroke-dasharray="5 2" stroke-width="1" d="M0.0 10.384878600859436L690.5530817235151 10.384878600859436" opacity="1"/><path id="ProcessOnPath1027" fill="none" stroke="#888" stroke-dasharray="0 0" stroke-width="0" d="M0.0 0.0L690.5530817235151 0.0L690.5530817235151 20.76975720171887L0.0 20.76975720171887Z" opacity="1"/></g><g id="ProcessOnG1028" opacity="1" transform="matrix(1.0,0.0,0.0,1.0,156.44691827648495,219.52189713122013)"><path id="ProcessOnPath1029" fill="none" stroke="#323232" stroke-dasharray="none" stroke-width="0" d="M0.0 0.0L92.92024962397034 0.0L92.92024962397034 36.47810286877987L0.0 36.47810286877987Z" opacity="1"/><g id="ProcessOnG1030" transform="matrix(1.0,0.0,0.0,1.0,0.0,10.114051434389935)"><text id="ProcessOnText1031" x="45.46" y="13.325" fill="#000" font-family="微软雅黑" font-size="13" font-style="normal" font-weight="normal" text-anchor="middle" text-decoration="none">网关层</text></g></g><g id="ProcessOnG1032" opacity="1" transform="matrix(1.0,0.0,0.0,1.0,263.2122062247121,213.99999999999997)"><path id="ProcessOnPath1033" fill="#fc9" stroke="#323232" stroke-dasharray="none" stroke-width="2" d="M0.0 4.0Q0.0 0.0 4.0 0.0L618.0000000000001 0.0Q622.0000000000001 0.0 622.0000000000001 4.0L622.0000000000001 47.521897131220214Q622.0000000000001 51.521897131220214 618.0000000000001 51.521897131220214L4.0 51.521897131220214Q0.0 51.521897131220214 0.0 47.521897131220214Z" opacity="1"/><g id="ProcessOnG1034" transform="matrix(1.0,0.0,0.0,1.0,10.0,17.635948565610107)"><text id="ProcessOnText1035" x="300" y="13.325" fill="#000" font-family="微软雅黑" font-size="13" font-style="normal" font-weight="normal" text-anchor="middle" text-decoration="none">API网关</text></g></g><g id="ProcessOnG1036" opacity="1" transform="matrix(1.0,0.0,0.0,1.0,157.4469182764849,878.6643801934409)"><path id="ProcessOnPath1037" fill="none" stroke="#323232" stroke-dasharray="none" stroke-width="0" d="M0.0 0.0L92.92024962397035 0.0L92.92024962397035 42.18644853584079L0.0 42.18644853584079Z" opacity="1"/><g id="ProcessOnG1038" transform="matrix(1.0,0.0,0.0,1.0,0.0,12.968224267920395)"><text id="ProcessOnText1039" x="45.46" y="13.325" fill="#000" font-family="微软雅黑" font-size="13" font-style="normal" font-weight="normal" text-anchor="middle" text-decoration="none">数据库</text></g></g><g id="ProcessOnG1040" opacity="1" transform="matrix(-1.8369701987210297E-16,-1.0,1.0,-1.8369701987210297E-16,344.50958630079,942.1159899752416)"><path id="ProcessOnPath1041" fill="#cfcfcf" stroke="#323232" stroke-dasharray="none" stroke-width="2" d="M12.407515654164136 0.0L73.64241578573709 0.0C85.1915951846765 0.0 85.1915951846765 54.44613145214299 73.64241578573709 54.44613145214299L12.407515654164136 54.44613145214299C-4.135838551388046 54.44613145214299 -4.135838551388046 0.0 12.407515654164136 0.0ZM73.64241578573709 0.0C62.29947173320729 0.0 62.29947173320729 54.44613145214299 73.64241578573709 54.44613145214299C62.29947173320729 54.44613145214299 62.29947173320729 0.0 73.64241578573709 0.0" opacity="1"/><g id="ProcessOnG1042" transform="matrix(1.0,0.0,0.0,1.0,0.0,19.098065726071496)"><text id="ProcessOnText1043" x="32.087" y="13.325" fill="#000" font-family="微软雅黑" font-size="13" font-style="normal" font-weight="normal" text-anchor="middle" text-decoration="none">My SQL</text></g></g><g id="ProcessOnG1044" opacity="1" transform="matrix(1.0,0.0,0.0,1.0,637.0742284882145,554.0340581264265)"><path id="ProcessOnPath1045" fill="#f99" stroke="#323232" stroke-dasharray="none" stroke-width="2" d="M0.0 4.0Q0.0 0.0 4.0 0.0L242.16048356355824 0.0Q246.16048356355824 0.0 246.16048356355824 4.0L246.16048356355824 198.58013025539094Q246.16048356355824 202.58013025539094 242.16048356355824 202.58013025539094L4.0 202.58013025539094Q0.0 202.58013025539094 0.0 198.58013025539094Z" opacity="1"/><g id="ProcessOnG1046" transform="matrix(1.0,0.0,0.0,1.0,10.0,93.16506512769547)"><text id="ProcessOnText1047" x="112.08" y="13.325" fill="#000" font-family="微软雅黑" font-size="13" font-style="normal" font-weight="normal" text-anchor="middle" text-decoration="none">基础服务</text></g></g><g id="ProcessOnG1048" opacity="1" transform="matrix(-1.8369701987210297E-16,-1.0,1.0,-1.8369701987210297E-16,550.4779705841104,942.1159899752416)"><path id="ProcessOnPath1049" fill="#cfcfcf" stroke="#323232" stroke-dasharray="none" stroke-width="2" d="M12.407515654164136 0.0L73.64241578573709 0.0C85.1915951846765 0.0 85.1915951846765 54.44613145214299 73.64241578573709 54.44613145214299L12.407515654164136 54.44613145214299C-4.135838551388046 54.44613145214299 -4.135838551388046 0.0 12.407515654164136 0.0ZM73.64241578573709 0.0C62.29947173320729 0.0 62.29947173320729 54.44613145214299 73.64241578573709 54.44613145214299C62.29947173320729 54.44613145214299 62.29947173320729 0.0 73.64241578573709 0.0" opacity="1"/><g id="ProcessOnG1050" transform="matrix(1.0,0.0,0.0,1.0,0.0,19.098065726071496)"><text id="ProcessOnText1051" x="32.087" y="13.325" fill="#000" font-family="微软雅黑" font-size="13" font-style="normal" font-weight="normal" text-anchor="middle" text-decoration="none">My SQL</text></g></g><g id="ProcessOnG1052" opacity="1" transform="matrix(-1.8369701987210297E-16,-1.0,1.0,-1.8369701987210297E-16,750.491200523552,938.1159899752416)"><path id="ProcessOnPath1053" fill="#cfcfcf" stroke="#323232" stroke-dasharray="none" stroke-width="2" d="M12.407515654164136 0.0L73.64241578573709 0.0C85.1915951846765 0.0 85.1915951846765 54.44613145214299 73.64241578573709 54.44613145214299L12.407515654164136 54.44613145214299C-4.135838551388046 54.44613145214299 -4.135838551388046 0.0 12.407515654164136 0.0ZM73.64241578573709 0.0C62.29947173320729 0.0 62.29947173320729 54.44613145214299 73.64241578573709 54.44613145214299C62.29947173320729 54.44613145214299 62.29947173320729 0.0 73.64241578573709 0.0" opacity="1"/><g id="ProcessOnG1054" transform="matrix(1.0,0.0,0.0,1.0,0.0,19.098065726071496)"><text id="ProcessOnText1055" x="32.087" y="13.325" fill="#000" font-family="微软雅黑" font-size="13" font-style="normal" font-weight="normal" text-anchor="middle" text-decoration="none">Mongo</text></g></g><g id="ProcessOnG1056" opacity="1" transform="matrix(1.0,0.0,0.0,1.0,627.7411026287548,105.99999999999997)"><path id="ProcessOnPath1057" fill="#9fc" stroke="#323232" stroke-dasharray="none" stroke-width="2" d="M0.0 4.0Q0.0 0.0 4.0 0.0L247.7300009672026 0.0Q251.7300009672026 0.0 251.7300009672026 4.0L251.7300009672026 45.0Q251.7300009672026 49.0 247.7300009672026 49.0L4.0 49.0Q0.0 49.0 0.0 45.0Z" opacity="1"/><g id="ProcessOnG1058" transform="matrix(1.0,0.0,0.0,1.0,10.0,16.375)"><text id="ProcessOnText1059" x="114.865" y="13.325" fill="#000" font-family="微软雅黑" font-size="13" font-style="normal" font-weight="normal" text-anchor="middle" text-decoration="none">HTML5(Angular)</text></g></g><g id="ProcessOnG1060" opacity="1" transform="matrix(1.0,0.0,0.0,1.0,262.2122062247121,329.80181251820017)"><path id="ProcessOnPath1061" fill="#cce5ff" stroke="#323232" stroke-dasharray="none" stroke-width="2" d="M0.0 4.0Q0.0 0.0 4.0 0.0L171.6323195809921 0.0Q175.6323195809921 0.0 175.6323195809921 4.0L175.6323195809921 130.48556622056236Q175.6323195809921 134.48556622056236 171.6323195809921 134.48556622056236L4.0 134.48556622056236Q0.0 134.48556622056236 0.0 130.48556622056236Z" opacity="1"/><g id="ProcessOnG1062" transform="matrix(1.0,0.0,0.0,1.0,10.0,59.11778311028118)"><text id="ProcessOnText1063" x="76.816" y="13.325" fill="#000" font-family="微软雅黑" font-size="13" font-style="normal" font-weight="normal" text-anchor="middle" text-decoration="none">APP服务</text></g></g><g id="ProcessOnG1064" opacity="1" transform="matrix(1.0,0.0,0.0,1.0,296.185425645846,346.75793568542764)"><path id="ProcessOnPath1065" fill="#fff" stroke="#323232" stroke-dasharray="none" stroke-width="2" d="M0.0 0.0L107.68588073872436 0.0L107.68588073872436 35.112260444413394L0.0 35.112260444413394Z" opacity="1"/><g id="ProcessOnG1066" transform="matrix(1.0,0.0,0.0,1.0,10.0,9.431130222206697)"><text id="ProcessOnText1067" x="42.843" y="13.325" fill="#000" font-family="微软雅黑" font-size="13" font-style="normal" font-weight="normal" text-anchor="middle" text-decoration="none">用户服务</text></g></g><g id="ProcessOnG1068" opacity="1" transform="matrix(1.0,0.0,0.0,1.0,296.18542564584595,414.1443204048187)"><path id="ProcessOnPath1069" fill="#fff" stroke="#323232" stroke-dasharray="none" stroke-width="2" d="M0.0 0.0L107.68588073872436 0.0L107.68588073872436 35.112260444413394L0.0 35.112260444413394Z" opacity="1"/><g id="ProcessOnG1070" transform="matrix(1.0,0.0,0.0,1.0,10.0,9.431130222206697)"><text id="ProcessOnText1071" x="42.843" y="13.325" fill="#000" font-family="微软雅黑" font-size="13" font-style="normal" font-weight="normal" text-anchor="middle" text-decoration="none">设备服务</text></g></g><g id="ProcessOnG1072" opacity="1" transform="matrix(1.0,0.0,0.0,1.0,262.2122062247121,498.9432337373063)"><path id="ProcessOnPath1073" fill="#cce5ff" stroke="#323232" stroke-dasharray="none" stroke-width="2" d="M0.0 4.0Q0.0 0.0 4.0 0.0L171.6323195809921 0.0Q175.6323195809921 0.0 175.6323195809921 4.0L175.6323195809921 120.85893983207768Q175.6323195809921 124.85893983207768 171.6323195809921 124.85893983207768L4.0 124.85893983207768Q0.0 124.85893983207768 0.0 120.85893983207768Z" opacity="1"/><g id="ProcessOnG1074" transform="matrix(1.0,0.0,0.0,1.0,10.0,54.30446991603884)"><text id="ProcessOnText1075" x="76.816" y="13.325" fill="#000" font-family="微软雅黑" font-size="13" font-style="normal" font-weight="normal" text-anchor="middle" text-decoration="none">内容服务</text></g></g><g id="ProcessOnG1076" opacity="1" transform="matrix(1.0,0.0,0.0,1.0,637.0742284882145,329.8018125182004)"><path id="ProcessOnPath1077" fill="#cce5ff" stroke="#323232" stroke-dasharray="none" stroke-width="2" d="M0.0 4.0Q0.0 0.0 4.0 0.0L242.16048356355824 0.0Q246.16048356355824 0.0 246.16048356355824 4.0L246.16048356355824 174.09258818696208Q246.16048356355824 178.09258818696208 242.16048356355824 178.09258818696208L4.0 178.09258818696208Q0.0 178.09258818696208 0.0 174.09258818696208Z" opacity="1"/><g id="ProcessOnG1078" transform="matrix(1.0,0.0,0.0,1.0,10.0,80.92129409348104)"><text id="ProcessOnText1079" x="112.08" y="13.325" fill="#000" font-family="微软雅黑" font-size="13" font-style="normal" font-weight="normal" text-anchor="middle" text-decoration="none">电商服务</text></g></g><g id="ProcessOnG1080" opacity="1" transform="matrix(1.0,0.0,0.0,1.0,643.9955493954874,351.98068674949604)"><path id="ProcessOnPath1081" fill="#fff" stroke="#323232" stroke-dasharray="none" stroke-width="2" d="M0.0 0.0L107.68588073872436 0.0L107.68588073872436 47.86800915972577L0.0 47.86800915972577Z" opacity="1"/><g id="ProcessOnG1082" transform="matrix(1.0,0.0,0.0,1.0,10.0,15.809004579862886)"><text id="ProcessOnText1083" x="42.843" y="13.325" fill="#000" font-family="微软雅黑" font-size="13" font-style="normal" font-weight="normal" text-anchor="middle" text-decoration="none">商品服务</text></g></g><g id="ProcessOnG1084" opacity="1" transform="matrix(1.0,0.0,0.0,1.0,769.5936496384136,350.98068674949604)"><path id="ProcessOnPath1085" fill="#fff" stroke="#323232" stroke-dasharray="none" stroke-width="2" d="M0.0 0.0L107.68588073872436 0.0L107.68588073872436 47.86800915972577L0.0 47.86800915972577Z" opacity="1"/><g id="ProcessOnG1086" transform="matrix(1.0,0.0,0.0,1.0,10.0,15.809004579862886)"><text id="ProcessOnText1087" x="42.843" y="13.325" fill="#000" font-family="微软雅黑" font-size="13" font-style="normal" font-weight="normal" text-anchor="middle" text-decoration="none">购物车服务</text></g></g><g id="ProcessOnG1088" opacity="1" transform="matrix(1.0,0.0,0.0,1.0,643.9955493954874,434.285600845238)"><path id="ProcessOnPath1089" fill="#fff" stroke="#323232" stroke-dasharray="none" stroke-width="2" d="M0.0 0.0L107.68588073872436 0.0L107.68588073872436 47.86800915972577L0.0 47.86800915972577Z" opacity="1"/><g id="ProcessOnG1090" transform="matrix(1.0,0.0,0.0,1.0,10.0,15.809004579862886)"><text id="ProcessOnText1091" x="42.843" y="13.325" fill="#000" font-family="微软雅黑" font-size="13" font-style="normal" font-weight="normal" text-anchor="middle" text-decoration="none">订单服务</text></g></g><g id="ProcessOnG1092" opacity="1" transform="matrix(1.0,0.0,0.0,1.0,769.5936496384136,434.285600845238)"><path id="ProcessOnPath1093" fill="#fff" stroke="#323232" stroke-dasharray="none" stroke-width="2" d="M0.0 0.0L107.68588073872436 0.0L107.68588073872436 47.86800915972577L0.0 47.86800915972577Z" opacity="1"/><g id="ProcessOnG1094" transform="matrix(1.0,0.0,0.0,1.0,10.0,15.809004579862886)"><text id="ProcessOnText1095" x="42.843" y="13.325" fill="#000" font-family="微软雅黑" font-size="13" font-style="normal" font-weight="normal" text-anchor="middle" text-decoration="none">优惠服务</text></g></g><g id="ProcessOnG1096" opacity="1" transform="matrix(1.0,0.0,0.0,1.0,264.14448468998796,655.485439537558)"><path id="ProcessOnPath1097" fill="#cce5ff" stroke="#323232" stroke-dasharray="none" stroke-width="2" d="M0.0 4.0Q0.0 0.0 4.0 0.0L173.56459804626786 0.0Q177.56459804626786 0.0 177.56459804626786 4.0L177.56459804626786 103.51456046244196Q177.56459804626786 107.51456046244196 173.56459804626786 107.51456046244196L4.0 107.51456046244196Q0.0 107.51456046244196 0.0 103.51456046244196Z" opacity="1"/><g id="ProcessOnG1098" transform="matrix(1.0,0.0,0.0,1.0,10.0,45.63228023122098)"><text id="ProcessOnText1099" x="77.782" y="13.325" fill="#000" font-family="微软雅黑" font-size="13" font-style="normal" font-weight="normal" text-anchor="middle" text-decoration="none">支付服务</text></g></g><g id="ProcessOnG1100" opacity="1" transform="matrix(1.0,0.0,0.0,1.0,296.185425645846,510.1233810714431)"><path id="ProcessOnPath1101" fill="#fff" stroke="#323232" stroke-dasharray="none" stroke-width="2" d="M0.0 0.0L107.68588073872436 0.0L107.68588073872436 35.112260444413394L0.0 35.112260444413394Z" opacity="1"/><g id="ProcessOnG1102" transform="matrix(1.0,0.0,0.0,1.0,10.0,9.431130222206697)"><text id="ProcessOnText1103" x="42.843" y="13.325" fill="#000" font-family="微软雅黑" font-size="13" font-style="normal" font-weight="normal" text-anchor="middle" text-decoration="none">广告图服务</text></g></g><g id="ProcessOnG1104" opacity="1" transform="matrix(1.0,0.0,0.0,1.0,296.185425645846,577.5097657908341)"><path id="ProcessOnPath1105" fill="#fff" stroke="#323232" stroke-dasharray="none" stroke-width="2" d="M0.0 0.0L107.68588073872436 0.0L107.68588073872436 35.112260444413394L0.0 35.112260444413394Z" opacity="1"/><g id="ProcessOnG1106" transform="matrix(1.0,0.0,0.0,1.0,10.0,9.431130222206697)"><text id="ProcessOnText1107" x="42.843" y="13.325" fill="#000" font-family="微软雅黑" font-size="13" font-style="normal" font-weight="normal" text-anchor="middle" text-decoration="none">文章服务</text></g></g><g id="ProcessOnG1108" opacity="1" transform="matrix(1.0,0.0,0.0,1.0,649.7923847913148,584.9343831500225)"><path id="ProcessOnPath1109" fill="#fff" stroke="#323232" stroke-dasharray="none" stroke-width="2" d="M0.0 0.0L107.68588073872436 0.0L107.68588073872436 47.55202350111128L0.0 47.55202350111128Z" opacity="1"/><g id="ProcessOnG1110" transform="matrix(1.0,0.0,0.0,1.0,10.0,15.65101175055564)"><text id="ProcessOnText1111" x="42.843" y="13.325" fill="#000" font-family="微软雅黑" font-size="13" font-style="normal" font-weight="normal" text-anchor="middle" text-decoration="none">账号服务</text></g></g><g id="ProcessOnG1112" opacity="1" transform="matrix(1.0,0.0,0.0,1.0,764.7629534752241,584.9343831500225)"><path id="ProcessOnPath1113" fill="#fff" stroke="#323232" stroke-dasharray="none" stroke-width="2" d="M0.0 0.0L107.68588073872436 0.0L107.68588073872436 47.55202350111128L0.0 47.55202350111128Z" opacity="1"/><g id="ProcessOnG1114" transform="matrix(1.0,0.0,0.0,1.0,10.0,15.65101175055564)"><text id="ProcessOnText1115" x="42.843" y="13.325" fill="#000" font-family="微软雅黑" font-size="13" font-style="normal" font-weight="normal" text-anchor="middle" text-decoration="none">消息服务</text></g></g><g id="ProcessOnG1116" opacity="1" transform="matrix(1.0,0.0,0.0,1.0,650.7585240239528,676.5837387677924)"><path id="ProcessOnPath1117" fill="#fff" stroke="#323232" stroke-dasharray="none" stroke-width="2" d="M0.0 0.0L107.68588073872436 0.0L107.68588073872436 47.55202350111128L0.0 47.55202350111128Z" opacity="1"/><g id="ProcessOnG1118" transform="matrix(1.0,0.0,0.0,1.0,10.0,15.65101175055564)"><text id="ProcessOnText1119" x="42.843" y="13.325" fill="#000" font-family="微软雅黑" font-size="13" font-style="normal" font-weight="normal" text-anchor="middle" text-decoration="none">图片服务</text></g></g><g id="ProcessOnG1120" opacity="1" transform="matrix(1.0,0.0,0.0,1.0,765.8874389866696,675.8745917355498)"><path id="ProcessOnPath1121" fill="#fff" stroke="#323232" stroke-dasharray="none" stroke-width="2" d="M0.0 0.0L107.68588073872436 0.0L107.68588073872436 47.55202350111128L0.0 47.55202350111128Z" opacity="1"/><g id="ProcessOnG1122" transform="matrix(1.0,0.0,0.0,1.0,10.0,15.65101175055564)"><text id="ProcessOnText1123" x="42.843" y="13.325" fill="#000" font-family="微软雅黑" font-size="13" font-style="normal" font-weight="normal" text-anchor="middle" text-decoration="none">公众号服务</text></g></g><g id="ProcessOnG1124"><path id="ProcessOnPath1125" fill="none" stroke="#323232" stroke-dasharray="none" stroke-width="2" marker-end="url(#ProcessOnMarker1126)" d="M401.4192733708792 154.99999999999997L401.4192733708792 184.49999999999997L574.2122062247122 184.49999999999997L574.2122062247122 198.76393202250017"/></g><g id="ProcessOnG1128"><path id="ProcessOnPath1129" fill="none" stroke="#323232" stroke-dasharray="none" stroke-width="2" marker-end="url(#ProcessOnMarker1130)" d="M753.6061031123561 154.99999999999997L753.6061031123561 184.49999999999997L574.2122062247122 184.49999999999997L574.2122062247122 198.76393202250017"/></g><g id="ProcessOnG1132" opacity="1" transform="matrix(1.0,0.0,0.0,1.0,492.6472850900927,505.96907542746555)"><path id="ProcessOnPath1133" fill="#ff0" stroke="#323232" stroke-dasharray="none" stroke-width="2" d="M0.0 55.73313200101207C0.0 -18.577710667004023 113.30546719460492 -18.577710667004023 113.30546719460492 55.73313200101207C113.30546719460492 130.04397466902816 0.0 130.04397466902816 0.0 55.73313200101207Z" opacity="1"/><g id="ProcessOnG1134" transform="matrix(1.0,0.0,0.0,1.0,10.0,47.60813200101207)"><text id="ProcessOnText1135" x="45.653" y="13.325" fill="#000" font-family="微软雅黑" font-size="13" font-style="normal" font-weight="normal" text-anchor="middle" text-decoration="none">中间件</text></g></g><g id="ProcessOnG1136"><path id="ProcessOnPath1137" fill="none" stroke="#323232" stroke-dasharray="none" stroke-width="2" marker-end="url(#ProcessOnMarker1138)" d="M437.84452580570417 397.0445956284814L549.3000186873952 397.0445956284814L549.3000186873952 490.7330074499658"/></g><g id="ProcessOnG1140"><path id="ProcessOnPath1141" fill="none" stroke="#323232" stroke-dasharray="none" stroke-width="2" marker-end="url(#ProcessOnMarker1142)" d="M437.84452580570417 561.3727036533451L465.2459054478984 561.3727036533451L465.2459054478984 561.7022074284777L477.4112171125929 561.7022074284777"/></g><g id="ProcessOnG1144"><path id="ProcessOnPath1145" fill="none" stroke="#323232" stroke-dasharray="none" stroke-width="2" marker-end="url(#ProcessOnMarker1146)" d="M441.7090827362558 709.242719768779L549.3000186873952 709.242719768779L549.3000186873952 632.6714074069895"/></g><g id="ProcessOnG1148"><path id="ProcessOnPath1149" fill="none" stroke="#323232" stroke-dasharray="none" stroke-width="2" marker-end="url(#ProcessOnMarker1150)" d="M637.0742284882145 418.84810661168143L549.3000186873952 418.84810661168143L549.3000186873952 490.7330074499658"/></g><g id="ProcessOnG1152"><path id="ProcessOnPath1153" fill="none" stroke="#323232" stroke-dasharray="none" stroke-width="2" marker-end="url(#ProcessOnMarker1154)" d="M637.0742284882145 655.324123254122L549.3000186873952 655.324123254122L549.3000186873952 632.6714074069895"/></g></g></g></svg>