<svg xmlns="http://www.w3.org/2000/svg" xmlns:xlink="http://www.w3.org/1999/xlink" id="processonSvg1000" width="799.765" height="895" viewBox="135.447 86 799.765 895"><defs id="ProcessOnDefs1001"><marker id="ProcessOnMarker1126" markerHeight="10.551" markerUnits="userSpaceOnUse" markerWidth="16.236" orient="auto" refX="-1" refY="3.899" viewBox="-1 -1.376 16.236 10.551"><path id="ProcessOnPath1127" fill="#323232" stroke="#323232" stroke-width="2" d="M12.0 3.8990363547948754L0.0 7.798072709589751V0.0Z" transform="matrix(1.0,0.0,0.0,1.0,0.0,0.0)"/></marker><marker id="ProcessOnMarker1130" markerHeight="10.551" markerUnits="userSpaceOnUse" markerWidth="16.236" orient="auto" refX="-1" refY="3.899" viewBox="-1 -1.376 16.236 10.551"><path id="ProcessOnPath1131" fill="#323232" stroke="#323232" stroke-width="2" d="M12.0 3.8990363547948754L0.0 7.798072709589751V0.0Z" transform="matrix(1.0,0.0,0.0,1.0,0.0,0.0)"/></marker><marker id="ProcessOnMarker1134" markerHeight="10.551" markerUnits="userSpaceOnUse" markerWidth="16.236" orient="auto" refX="-1" refY="3.899" viewBox="-1 -1.376 16.236 10.551"><path id="ProcessOnPath1135" fill="#323232" stroke="#323232" stroke-width="2" d="M12.0 3.8990363547948754L0.0 7.798072709589751V0.0Z" transform="matrix(1.0,0.0,0.0,1.0,0.0,0.0)"/></marker><marker id="ProcessOnMarker1138" markerHeight="10.551" markerUnits="userSpaceOnUse" markerWidth="16.236" orient="auto" refX="-1" refY="3.899" viewBox="-1 -1.376 16.236 10.551"><path id="ProcessOnPath1139" fill="#323232" stroke="#323232" stroke-width="2" d="M12.0 3.8990363547948754L0.0 7.798072709589751V0.0Z" transform="matrix(1.0,0.0,0.0,1.0,0.0,0.0)"/></marker><marker id="ProcessOnMarker1142" markerHeight="10.551" markerUnits="userSpaceOnUse" markerWidth="16.236" orient="auto" refX="-1" refY="3.899" viewBox="-1 -1.376 16.236 10.551"><path id="ProcessOnPath1143" fill="#323232" stroke="#323232" stroke-width="2" d="M12.0 3.8990363547948754L0.0 7.798072709589751V0.0Z" transform="matrix(1.0,0.0,0.0,1.0,0.0,0.0)"/></marker><marker id="ProcessOnMarker1146" markerHeight="10.551" markerUnits="userSpaceOnUse" markerWidth="16.236" orient="auto" refX="-1" refY="3.899" viewBox="-1 -1.376 16.236 10.551"><path id="ProcessOnPath1147" fill="#323232" stroke="#323232" stroke-width="2" d="M12.0 3.8990363547948754L0.0 7.798072709589751V0.0Z" transform="matrix(1.0,0.0,0.0,1.0,0.0,0.0)"/></marker><marker id="ProcessOnMarker1150" markerHeight="10.551" markerUnits="userSpaceOnUse" markerWidth="16.236" orient="auto" refX="-1" refY="3.899" viewBox="-1 -1.376 16.236 10.551"><path id="ProcessOnPath1151" fill="#323232" stroke="#323232" stroke-width="2" d="M12.0 3.8990363547948754L0.0 7.798072709589751V0.0Z" transform="matrix(1.0,0.0,0.0,1.0,0.0,0.0)"/></marker><marker id="ProcessOnMarker1154" markerHeight="10.551" markerUnits="userSpaceOnUse" markerWidth="16.236" orient="auto" refX="-1" refY="3.899" viewBox="-1 -1.376 16.236 10.551"><path id="ProcessOnPath1155" fill="#323232" stroke="#323232" stroke-width="2" d="M12.0 3.8990363547948754L0.0 7.798072709589751V0.0Z" transform="matrix(1.0,0.0,0.0,1.0,0.0,0.0)"/></marker><marker id="ProcessOnMarker1158" markerHeight="10.551" markerUnits="userSpaceOnUse" markerWidth="16.236" orient="auto" refX="-1" refY="3.899" viewBox="-1 -1.376 16.236 10.551"><path id="ProcessOnPath1159" fill="#323232" stroke="#323232" stroke-width="2" d="M12.0 3.8990363547948754L0.0 7.798072709589751V0.0Z" transform="matrix(1.0,0.0,0.0,1.0,0.0,0.0)"/></marker></defs><g id="ProcessOnG1002"><path id="ProcessOnPath1003" fill="#fff" d="M135.4469182764849 85.99999999999997H935.2122062247123V981.0H135.4469182764849V86.0Z"/><g id="ProcessOnG1004"><g id="ProcessOnG1005" opacity="1" transform="matrix(1.0,0.0,0.0,1.0,260.21220622471213,832.5152089227224)"><path id="ProcessOnPath1006" fill="#99f" stroke="#323232" stroke-dasharray="none" stroke-width="2" d="M0.0 4.0Q0.0 0.0 4.0 0.0L618.0000000000001 0.0Q622.0000000000001 0.0 622.0000000000001 4.0L622.0000000000001 124.48479107727758Q622.0000000000001 128.48479107727758 618.0000000000001 128.48479107727758L4.0 128.48479107727758Q0.0 128.48479107727758 0.0 124.48479107727758Z" opacity="1"/></g><g id="ProcessOnG1007" opacity="1" transform="matrix(1.0,0.0,0.0,1.0,213.42449544842435,797.7016574585634)"><path id="ProcessOnPath1008" fill="none" stroke="#888" stroke-dasharray="5 2" stroke-width="1" d="M0.0 10.384878600859436L690.5530817235151 10.384878600859436" opacity="1"/><path id="ProcessOnPath1009" fill="none" stroke="#888" stroke-dasharray="0 0" stroke-width="0" d="M0.0 0.0L690.5530817235151 0.0L690.5530817235151 20.76975720171887L0.0 20.76975720171887Z" opacity="1"/></g><g id="ProcessOnG1010" opacity="1" transform="matrix(1.0,0.0,0.0,1.0,212.44691827648495,185.2302427982811)"><path id="ProcessOnPath1011" fill="none" stroke="#888" stroke-dasharray="5 2" stroke-width="1" d="M0.0 10.384878600859436L690.5530817235151 10.384878600859436" opacity="1"/><path id="ProcessOnPath1012" fill="none" stroke="#888" stroke-dasharray="0 0" stroke-width="0" d="M0.0 0.0L690.5530817235151 0.0L690.5530817235151 20.76975720171887L0.0 20.76975720171887Z" opacity="1"/></g><g id="ProcessOnG1013" opacity="1" transform="matrix(1.0,0.0,0.0,1.0,263.2122062247121,105.99999999999997)"><path id="ProcessOnPath1014" fill="#9fc" stroke="#323232" stroke-dasharray="none" stroke-width="2" d="M0.0 4.0Q0.0 0.0 4.0 0.0L272.4141342923342 0.0Q276.4141342923342 0.0 276.4141342923342 4.0L276.4141342923342 45.0Q276.4141342923342 49.0 272.4141342923342 49.0L4.0 49.0Q0.0 49.0 0.0 45.0Z" opacity="1"/><g id="ProcessOnG1015" transform="matrix(1.0,0.0,0.0,1.0,10.0,16.375)"><text id="ProcessOnText1016" x="127.207" y="13.325" fill="#000" font-family="微软雅黑" font-size="13" font-style="normal" font-weight="normal" text-anchor="middle" text-decoration="none">APP</text></g></g><g id="ProcessOnG1017" opacity="1" transform="matrix(1.0,0.0,0.0,1.0,155.4469182764849,481.7576044613613)"><path id="ProcessOnPath1018" fill="none" stroke="#323232" stroke-dasharray="none" stroke-width="0" d="M0.0 0.0L92.92024962397035 0.0L92.92024962397035 42.18644853584079L0.0 42.18644853584079Z" opacity="1"/><g id="ProcessOnG1019" transform="matrix(1.0,0.0,0.0,1.0,0.0,12.968224267920395)"><text id="ProcessOnText1020" x="45.46" y="13.325" fill="#000" font-family="微软雅黑" font-size="13" font-style="normal" font-weight="normal" text-anchor="middle" text-decoration="none">业务层</text></g></g><g id="ProcessOnG1021" opacity="1" transform="matrix(1.0,0.0,0.0,1.0,157.44691827648495,129.40677573207958)"><path id="ProcessOnPath1022" fill="none" stroke="#323232" stroke-dasharray="none" stroke-width="0" d="M0.0 0.0L92.92024962397035 0.0L92.92024962397035 42.18644853584079L0.0 42.18644853584079Z" opacity="1"/><g id="ProcessOnG1023" transform="matrix(1.0,0.0,0.0,1.0,0.0,12.968224267920395)"><text id="ProcessOnText1024" x="45.46" y="13.325" fill="#000" font-family="微软雅黑" font-size="13" font-style="normal" font-weight="normal" text-anchor="middle" text-decoration="none">用户层</text></g></g><g id="ProcessOnG1025" opacity="1" transform="matrix(1.0,0.0,0.0,1.0,215.4469182764849,273.2302427982811)"><path id="ProcessOnPath1026" fill="none" stroke="#888" stroke-dasharray="5 2" stroke-width="1" d="M0.0 10.384878600859436L690.5530817235151 10.384878600859436" opacity="1"/><path id="ProcessOnPath1027" fill="none" stroke="#888" stroke-dasharray="0 0" stroke-width="0" d="M0.0 0.0L690.5530817235151 0.0L690.5530817235151 20.76975720171887L0.0 20.76975720171887Z" opacity="1"/></g><g id="ProcessOnG1028" opacity="1" transform="matrix(1.0,0.0,0.0,1.0,156.44691827648495,219.52189713122013)"><path id="ProcessOnPath1029" fill="none" stroke="#323232" stroke-dasharray="none" stroke-width="0" d="M0.0 0.0L92.92024962397034 0.0L92.92024962397034 36.47810286877987L0.0 36.47810286877987Z" opacity="1"/><g id="ProcessOnG1030" transform="matrix(1.0,0.0,0.0,1.0,0.0,10.114051434389935)"><text id="ProcessOnText1031" x="45.46" y="13.325" fill="#000" font-family="微软雅黑" font-size="13" font-style="normal" font-weight="normal" text-anchor="middle" text-decoration="none">网关层</text></g></g><g id="ProcessOnG1032" opacity="1" transform="matrix(1.0,0.0,0.0,1.0,263.2122062247121,213.99999999999997)"><path id="ProcessOnPath1033" fill="#fc9" stroke="#323232" stroke-dasharray="none" stroke-width="2" d="M0.0 4.0Q0.0 0.0 4.0 0.0L618.0000000000001 0.0Q622.0000000000001 0.0 622.0000000000001 4.0L622.0000000000001 47.521897131220214Q622.0000000000001 51.521897131220214 618.0000000000001 51.521897131220214L4.0 51.521897131220214Q0.0 51.521897131220214 0.0 47.521897131220214Z" opacity="1"/><g id="ProcessOnG1034" transform="matrix(1.0,0.0,0.0,1.0,10.0,17.635948565610107)"><text id="ProcessOnText1035" x="300" y="13.325" fill="#000" font-family="微软雅黑" font-size="13" font-style="normal" font-weight="normal" text-anchor="middle" text-decoration="none">API网关</text></g></g><g id="ProcessOnG1036" opacity="1" transform="matrix(1.0,0.0,0.0,1.0,157.4469182764849,878.6643801934409)"><path id="ProcessOnPath1037" fill="none" stroke="#323232" stroke-dasharray="none" stroke-width="0" d="M0.0 0.0L92.92024962397035 0.0L92.92024962397035 42.18644853584079L0.0 42.18644853584079Z" opacity="1"/><g id="ProcessOnG1038" transform="matrix(1.0,0.0,0.0,1.0,0.0,12.968224267920395)"><text id="ProcessOnText1039" x="45.46" y="13.325" fill="#000" font-family="微软雅黑" font-size="13" font-style="normal" font-weight="normal" text-anchor="middle" text-decoration="none">数据库</text></g></g><g id="ProcessOnG1040" opacity="1" transform="matrix(-1.8369701987210297E-16,-1.0,1.0,-1.8369701987210297E-16,344.50958630079,942.1159899752416)"><path id="ProcessOnPath1041" fill="#cfcfcf" stroke="#323232" stroke-dasharray="none" stroke-width="2" d="M12.407515654164136 0.0L73.64241578573709 0.0C85.1915951846765 0.0 85.1915951846765 54.44613145214299 73.64241578573709 54.44613145214299L12.407515654164136 54.44613145214299C-4.135838551388046 54.44613145214299 -4.135838551388046 0.0 12.407515654164136 0.0ZM73.64241578573709 0.0C62.29947173320729 0.0 62.29947173320729 54.44613145214299 73.64241578573709 54.44613145214299C62.29947173320729 54.44613145214299 62.29947173320729 0.0 73.64241578573709 0.0" opacity="1"/><g id="ProcessOnG1042" transform="matrix(1.0,0.0,0.0,1.0,0.0,19.098065726071496)"><text id="ProcessOnText1043" x="32.087" y="13.325" fill="#000" font-family="微软雅黑" font-size="13" font-style="normal" font-weight="normal" text-anchor="middle" text-decoration="none">My SQL</text></g></g><g id="ProcessOnG1044" opacity="1" transform="matrix(1.0,0.0,0.0,1.0,263.2122062247121,686.6137750474147)"><path id="ProcessOnPath1045" fill="#f99" stroke="#323232" stroke-dasharray="none" stroke-width="2" d="M0.0 4.0Q0.0 0.0 4.0 0.0L618.0000000000002 0.0Q622.0000000000002 0.0 622.0000000000002 4.0L622.0000000000002 93.38622495258528Q622.0000000000002 97.38622495258528 618.0000000000002 97.38622495258528L4.0 97.38622495258528Q0.0 97.38622495258528 0.0 93.38622495258528Z" opacity="1"/><g id="ProcessOnG1046" transform="matrix(1.0,0.0,0.0,1.0,10.0,40.56811247629264)"><text id="ProcessOnText1047" x="300" y="13.325" fill="#000" font-family="微软雅黑" font-size="13" font-style="normal" font-weight="normal" text-anchor="middle" text-decoration="none">基础服务</text></g></g><g id="ProcessOnG1048" opacity="1" transform="matrix(-1.8369701987210297E-16,-1.0,1.0,-1.8369701987210297E-16,550.4779705841104,942.1159899752416)"><path id="ProcessOnPath1049" fill="#cfcfcf" stroke="#323232" stroke-dasharray="none" stroke-width="2" d="M12.407515654164136 0.0L73.64241578573709 0.0C85.1915951846765 0.0 85.1915951846765 54.44613145214299 73.64241578573709 54.44613145214299L12.407515654164136 54.44613145214299C-4.135838551388046 54.44613145214299 -4.135838551388046 0.0 12.407515654164136 0.0ZM73.64241578573709 0.0C62.29947173320729 0.0 62.29947173320729 54.44613145214299 73.64241578573709 54.44613145214299C62.29947173320729 54.44613145214299 62.29947173320729 0.0 73.64241578573709 0.0" opacity="1"/><g id="ProcessOnG1050" transform="matrix(1.0,0.0,0.0,1.0,0.0,19.098065726071496)"><text id="ProcessOnText1051" x="32.087" y="13.325" fill="#000" font-family="微软雅黑" font-size="13" font-style="normal" font-weight="normal" text-anchor="middle" text-decoration="none">My SQL</text></g></g><g id="ProcessOnG1052" opacity="1" transform="matrix(-1.8369701987210297E-16,-1.0,1.0,-1.8369701987210297E-16,750.491200523552,938.1159899752416)"><path id="ProcessOnPath1053" fill="#cfcfcf" stroke="#323232" stroke-dasharray="none" stroke-width="2" d="M12.407515654164136 0.0L73.64241578573709 0.0C85.1915951846765 0.0 85.1915951846765 54.44613145214299 73.64241578573709 54.44613145214299L12.407515654164136 54.44613145214299C-4.135838551388046 54.44613145214299 -4.135838551388046 0.0 12.407515654164136 0.0ZM73.64241578573709 0.0C62.29947173320729 0.0 62.29947173320729 54.44613145214299 73.64241578573709 54.44613145214299C62.29947173320729 54.44613145214299 62.29947173320729 0.0 73.64241578573709 0.0" opacity="1"/><g id="ProcessOnG1054" transform="matrix(1.0,0.0,0.0,1.0,0.0,19.098065726071496)"><text id="ProcessOnText1055" x="32.087" y="13.325" fill="#000" font-family="微软雅黑" font-size="13" font-style="normal" font-weight="normal" text-anchor="middle" text-decoration="none">Mongo</text></g></g><g id="ProcessOnG1056" opacity="1" transform="matrix(1.0,0.0,0.0,1.0,627.7411026287548,105.99999999999997)"><path id="ProcessOnPath1057" fill="#9fc" stroke="#323232" stroke-dasharray="none" stroke-width="2" d="M0.0 4.0Q0.0 0.0 4.0 0.0L247.7300009672026 0.0Q251.7300009672026 0.0 251.7300009672026 4.0L251.7300009672026 45.0Q251.7300009672026 49.0 247.7300009672026 49.0L4.0 49.0Q0.0 49.0 0.0 45.0Z" opacity="1"/><g id="ProcessOnG1058" transform="matrix(1.0,0.0,0.0,1.0,10.0,16.375)"><text id="ProcessOnText1059" x="114.865" y="13.325" fill="#000" font-family="微软雅黑" font-size="13" font-style="normal" font-weight="normal" text-anchor="middle" text-decoration="none">HTML5(Angular)</text></g></g><g id="ProcessOnG1060" opacity="1" transform="matrix(1.0,0.0,0.0,1.0,267.2122062247121,318.9999999999998)"><path id="ProcessOnPath1061" fill="#cce5ff" stroke="#323232" stroke-dasharray="none" stroke-width="2" d="M0.0 4.0Q0.0 0.0 4.0 0.0L177.7877937752878 0.0Q181.7877937752878 0.0 181.7877937752878 4.0L181.7877937752878 135.70165745856377Q181.7877937752878 139.70165745856377 177.7877937752878 139.70165745856377L4.0 139.70165745856377Q0.0 139.70165745856377 0.0 135.70165745856377Z" opacity="1"/><g id="ProcessOnG1062" transform="matrix(1.0,0.0,0.0,1.0,10.0,61.725828729281886)"><text id="ProcessOnText1063" x="79.894" y="13.325" fill="#000" font-family="微软雅黑" font-size="13" font-style="normal" font-weight="normal" text-anchor="middle" text-decoration="none">APP服务</text></g></g><g id="ProcessOnG1064" opacity="1" transform="matrix(1.0,0.0,0.0,1.0,302.3761021451534,336.61377504741483)"><path id="ProcessOnPath1065" fill="#fff" stroke="#323232" stroke-dasharray="none" stroke-width="2" d="M0.0 0.0L111.46000193440527 0.0L111.46000193440527 36.474107363733765L0.0 36.474107363733765Z" opacity="1"/><g id="ProcessOnG1066" transform="matrix(1.0,0.0,0.0,1.0,10.0,10.112053681866882)"><text id="ProcessOnText1067" x="44.73" y="13.325" fill="#000" font-family="微软雅黑" font-size="13" font-style="normal" font-weight="normal" text-anchor="middle" text-decoration="none">用户服务</text></g></g><g id="ProcessOnG1068" opacity="1" transform="matrix(1.0,0.0,0.0,1.0,302.37610214515337,406.61377504741483)"><path id="ProcessOnPath1069" fill="#fff" stroke="#323232" stroke-dasharray="none" stroke-width="2" d="M0.0 0.0L111.46000193440527 0.0L111.46000193440527 36.474107363733765L0.0 36.474107363733765Z" opacity="1"/><g id="ProcessOnG1070" transform="matrix(1.0,0.0,0.0,1.0,10.0,10.112053681866882)"><text id="ProcessOnText1071" x="44.73" y="13.325" fill="#000" font-family="微软雅黑" font-size="13" font-style="normal" font-weight="normal" text-anchor="middle" text-decoration="none">设备服务</text></g></g><g id="ProcessOnG1072" opacity="1" transform="matrix(1.0,0.0,0.0,1.0,267.2122062247121,508.7016574585633)"><path id="ProcessOnPath1073" fill="#cce5ff" stroke="#323232" stroke-dasharray="none" stroke-width="2" d="M0.0 4.0Q0.0 0.0 4.0 0.0L177.7877937752878 0.0Q181.7877937752878 0.0 181.7877937752878 4.0L181.7877937752878 125.70165745856355Q181.7877937752878 129.70165745856355 177.7877937752878 129.70165745856355L4.0 129.70165745856355Q0.0 129.70165745856355 0.0 125.70165745856355Z" opacity="1"/><g id="ProcessOnG1074" transform="matrix(1.0,0.0,0.0,1.0,10.0,56.72582872928177)"><text id="ProcessOnText1075" x="79.894" y="13.325" fill="#000" font-family="微软雅黑" font-size="13" font-style="normal" font-weight="normal" text-anchor="middle" text-decoration="none">内容服务</text></g></g><g id="ProcessOnG1076" opacity="1" transform="matrix(1.0,0.0,0.0,1.0,626.2122062247122,321.0)"><path id="ProcessOnPath1077" fill="#cce5ff" stroke="#323232" stroke-dasharray="none" stroke-width="2" d="M0.0 4.0Q0.0 0.0 4.0 0.0L250.7877937752878 0.0Q254.7877937752878 0.0 254.7877937752878 4.0L254.7877937752878 131.70165745856332Q254.7877937752878 135.70165745856332 250.7877937752878 135.70165745856332L4.0 135.70165745856332Q0.0 135.70165745856332 0.0 131.70165745856332Z" opacity="1"/><g id="ProcessOnG1078" transform="matrix(1.0,0.0,0.0,1.0,10.0,59.72582872928166)"><text id="ProcessOnText1079" x="116.394" y="13.325" fill="#000" font-family="微软雅黑" font-size="13" font-style="normal" font-weight="normal" text-anchor="middle" text-decoration="none">电商服务</text></g></g><g id="ProcessOnG1080" opacity="1" transform="matrix(1.0,0.0,0.0,1.0,633.3761021451535,335.61377504741483)"><path id="ProcessOnPath1081" fill="#fff" stroke="#323232" stroke-dasharray="none" stroke-width="2" d="M0.0 0.0L111.46000193440527 0.0L111.46000193440527 36.474107363733765L0.0 36.474107363733765Z" opacity="1"/><g id="ProcessOnG1082" transform="matrix(1.0,0.0,0.0,1.0,10.0,10.112053681866882)"><text id="ProcessOnText1083" x="44.73" y="13.325" fill="#000" font-family="微软雅黑" font-size="13" font-style="normal" font-weight="normal" text-anchor="middle" text-decoration="none">商品服务</text></g></g><g id="ProcessOnG1084" opacity="1" transform="matrix(1.0,0.0,0.0,1.0,763.3761021451535,335.61377504741483)"><path id="ProcessOnPath1085" fill="#fff" stroke="#323232" stroke-dasharray="none" stroke-width="2" d="M0.0 0.0L111.46000193440527 0.0L111.46000193440527 36.474107363733765L0.0 36.474107363733765Z" opacity="1"/><g id="ProcessOnG1086" transform="matrix(1.0,0.0,0.0,1.0,10.0,10.112053681866882)"><text id="ProcessOnText1087" x="44.73" y="13.325" fill="#000" font-family="微软雅黑" font-size="13" font-style="normal" font-weight="normal" text-anchor="middle" text-decoration="none">购物车服务</text></g></g><g id="ProcessOnG1088" opacity="1" transform="matrix(1.0,0.0,0.0,1.0,633.3761021451535,400.61377504741483)"><path id="ProcessOnPath1089" fill="#fff" stroke="#323232" stroke-dasharray="none" stroke-width="2" d="M0.0 0.0L111.46000193440527 0.0L111.46000193440527 36.474107363733765L0.0 36.474107363733765Z" opacity="1"/><g id="ProcessOnG1090" transform="matrix(1.0,0.0,0.0,1.0,10.0,10.112053681866882)"><text id="ProcessOnText1091" x="44.73" y="13.325" fill="#000" font-family="微软雅黑" font-size="13" font-style="normal" font-weight="normal" text-anchor="middle" text-decoration="none">订单服务</text></g></g><g id="ProcessOnG1092" opacity="1" transform="matrix(1.0,0.0,0.0,1.0,763.3761021451535,400.61377504741483)"><path id="ProcessOnPath1093" fill="#fff" stroke="#323232" stroke-dasharray="none" stroke-width="2" d="M0.0 0.0L111.46000193440527 0.0L111.46000193440527 36.474107363733765L0.0 36.474107363733765Z" opacity="1"/><g id="ProcessOnG1094" transform="matrix(1.0,0.0,0.0,1.0,10.0,10.112053681866882)"><text id="ProcessOnText1095" x="44.73" y="13.325" fill="#000" font-family="微软雅黑" font-size="13" font-style="normal" font-weight="normal" text-anchor="middle" text-decoration="none">优惠服务</text></g></g><g id="ProcessOnG1096" opacity="1" transform="matrix(1.0,0.0,0.0,1.0,626.2122062247122,509.3154325059784)"><path id="ProcessOnPath1097" fill="#cce5ff" stroke="#323232" stroke-dasharray="none" stroke-width="2" d="M0.0 4.0Q0.0 0.0 4.0 0.0L250.7877937752878 0.0Q254.7877937752878 0.0 254.7877937752878 4.0L254.7877937752878 125.70165745856343Q254.7877937752878 129.70165745856343 250.7877937752878 129.70165745856343L4.0 129.70165745856343Q0.0 129.70165745856343 0.0 125.70165745856343Z" opacity="1"/><g id="ProcessOnG1098" transform="matrix(1.0,0.0,0.0,1.0,10.0,56.725828729281716)"><text id="ProcessOnText1099" x="116.394" y="13.325" fill="#000" font-family="微软雅黑" font-size="13" font-style="normal" font-weight="normal" text-anchor="middle" text-decoration="none">支付服务</text></g></g><g id="ProcessOnG1100" opacity="1" transform="matrix(1.0,0.0,0.0,1.0,302.3761021451534,520.3154325059784)"><path id="ProcessOnPath1101" fill="#fff" stroke="#323232" stroke-dasharray="none" stroke-width="2" d="M0.0 0.0L111.46000193440527 0.0L111.46000193440527 36.474107363733765L0.0 36.474107363733765Z" opacity="1"/><g id="ProcessOnG1102" transform="matrix(1.0,0.0,0.0,1.0,10.0,10.112053681866882)"><text id="ProcessOnText1103" x="44.73" y="13.325" fill="#000" font-family="微软雅黑" font-size="13" font-style="normal" font-weight="normal" text-anchor="middle" text-decoration="none">广告图服务</text></g></g><g id="ProcessOnG1104" opacity="1" transform="matrix(1.0,0.0,0.0,1.0,302.3761021451534,590.3154325059784)"><path id="ProcessOnPath1105" fill="#fff" stroke="#323232" stroke-dasharray="none" stroke-width="2" d="M0.0 0.0L111.46000193440527 0.0L111.46000193440527 36.474107363733765L0.0 36.474107363733765Z" opacity="1"/><g id="ProcessOnG1106" transform="matrix(1.0,0.0,0.0,1.0,10.0,10.112053681866882)"><text id="ProcessOnText1107" x="44.73" y="13.325" fill="#000" font-family="微软雅黑" font-size="13" font-style="normal" font-weight="normal" text-anchor="middle" text-decoration="none">文章服务</text></g></g><g id="ProcessOnG1108" opacity="1" transform="matrix(1.0,0.0,0.0,1.0,280.21220622471213,720.0878824111485)"><path id="ProcessOnPath1109" fill="#fff" stroke="#323232" stroke-dasharray="none" stroke-width="2" d="M0.0 0.0L111.46000193440527 0.0L111.46000193440527 36.474107363733765L0.0 36.474107363733765Z" opacity="1"/><g id="ProcessOnG1110" transform="matrix(1.0,0.0,0.0,1.0,10.0,10.112053681866882)"><text id="ProcessOnText1111" x="44.73" y="13.325" fill="#000" font-family="微软雅黑" font-size="13" font-style="normal" font-weight="normal" text-anchor="middle" text-decoration="none">账号服务</text></g></g><g id="ProcessOnG1112" opacity="1" transform="matrix(1.0,0.0,0.0,1.0,413.8361040795587,720.0878824111485)"><path id="ProcessOnPath1113" fill="#fff" stroke="#323232" stroke-dasharray="none" stroke-width="2" d="M0.0 0.0L111.46000193440527 0.0L111.46000193440527 36.474107363733765L0.0 36.474107363733765Z" opacity="1"/><g id="ProcessOnG1114" transform="matrix(1.0,0.0,0.0,1.0,10.0,10.112053681866882)"><text id="ProcessOnText1115" x="44.73" y="13.325" fill="#000" font-family="微软雅黑" font-size="13" font-style="normal" font-weight="normal" text-anchor="middle" text-decoration="none">消息服务</text></g></g><g id="ProcessOnG1116" opacity="1" transform="matrix(1.0,0.0,0.0,1.0,616.3761021451535,717.6137750474147)"><path id="ProcessOnPath1117" fill="#fff" stroke="#323232" stroke-dasharray="none" stroke-width="2" d="M0.0 0.0L111.46000193440527 0.0L111.46000193440527 36.474107363733765L0.0 36.474107363733765Z" opacity="1"/><g id="ProcessOnG1118" transform="matrix(1.0,0.0,0.0,1.0,10.0,10.112053681866882)"><text id="ProcessOnText1119" x="44.73" y="13.325" fill="#000" font-family="微软雅黑" font-size="13" font-style="normal" font-weight="normal" text-anchor="middle" text-decoration="none">图片服务</text></g></g><g id="ProcessOnG1120" opacity="1" transform="matrix(1.0,0.0,0.0,1.0,758.3761021451535,717.0698338418405)"><path id="ProcessOnPath1121" fill="#fff" stroke="#323232" stroke-dasharray="none" stroke-width="2" d="M0.0 0.0L111.46000193440527 0.0L111.46000193440527 36.474107363733765L0.0 36.474107363733765Z" opacity="1"/><g id="ProcessOnG1122" transform="matrix(1.0,0.0,0.0,1.0,10.0,10.112053681866882)"><text id="ProcessOnText1123" x="44.73" y="13.325" fill="#000" font-family="微软雅黑" font-size="13" font-style="normal" font-weight="normal" text-anchor="middle" text-decoration="none">公众号服务</text></g></g><g id="ProcessOnG1124"><path id="ProcessOnPath1125" fill="none" stroke="#323232" stroke-dasharray="none" stroke-width="2" marker-end="url(#ProcessOnMarker1126)" d="M626.2122062247122 388.85082872928166L537.6061031123561 388.85082872928166L537.6061031123561 388.85082872928166L464.23606797749966 388.85082872928166"/></g><g id="ProcessOnG1128"><path id="ProcessOnPath1129" fill="none" stroke="#323232" stroke-dasharray="none" stroke-width="2" marker-end="url(#ProcessOnMarker1130)" d="M448.9999999999999 573.552486187845L478.9999999999999 573.552486187845L478.9999999999999 291.0L753.6061031123561 291.0L753.6061031123561 305.7639320225002"/></g><g id="ProcessOnG1132"><path id="ProcessOnPath1133" fill="none" stroke="#323232" stroke-dasharray="none" stroke-width="2" marker-end="url(#ProcessOnMarker1134)" d="M358.106103112356 508.7016574585633L358.106103112356 483.70165745856343L358.106103112356 483.70165745856343L358.106103112356 473.9377254360633"/></g><g id="ProcessOnG1136"><path id="ProcessOnPath1137" fill="none" stroke="#323232" stroke-dasharray="none" stroke-width="2" marker-end="url(#ProcessOnMarker1138)" d="M753.6061031123561 456.7016574585633L753.6061031123561 483.00854498227085L753.6061031123561 483.00854498227085L753.6061031123561 494.0793645284786"/></g><g id="ProcessOnG1140"><path id="ProcessOnPath1141" fill="none" stroke="#323232" stroke-dasharray="none" stroke-width="2" marker-end="url(#ProcessOnMarker1142)" d="M267.2122062247121 388.85082872928166L233.21220622471208 388.85082872928166L233.21220622471208 735.3068875237074L247.97613824721228 735.3068875237074"/></g><g id="ProcessOnG1144"><path id="ProcessOnPath1145" fill="none" stroke="#323232" stroke-dasharray="none" stroke-width="2" marker-end="url(#ProcessOnMarker1146)" d="M881.0 388.85082872928166L915.2122062247123 388.85082872928166L915.2122062247123 735.3068875237074L900.4482742022121 735.3068875237074"/></g><g id="ProcessOnG1148"><path id="ProcessOnPath1149" fill="none" stroke="#323232" stroke-dasharray="none" stroke-width="2" marker-end="url(#ProcessOnMarker1150)" d="M358.106103112356 638.4033149171269L358.106103112356 662.5085449822708L574.2122062247122 662.5085449822708L574.2122062247122 671.3777070699149"/></g><g id="ProcessOnG1152"><path id="ProcessOnPath1153" fill="none" stroke="#323232" stroke-dasharray="none" stroke-width="2" marker-end="url(#ProcessOnMarker1154)" d="M401.4192733708792 154.99999999999997L401.4192733708792 184.49999999999997L574.2122062247122 184.49999999999997L574.2122062247122 198.76393202250017"/></g><g id="ProcessOnG1156"><path id="ProcessOnPath1157" fill="none" stroke="#323232" stroke-dasharray="none" stroke-width="2" marker-end="url(#ProcessOnMarker1158)" d="M753.6061031123561 154.99999999999997L753.6061031123561 184.49999999999997L574.2122062247122 184.49999999999997L574.2122062247122 198.76393202250017"/></g></g></g></svg>